<svg version="1.1" id="logo-footer" xmlns="http://www.w3.org/2000/svg" xmlns:xlink="http://www.w3.org/1999/xlink" viewBox="0 0 255 40" width="255" height="40">
	<g>
		<defs>
			<rect id="SVGID_1_" width="255" height="40"/>
		</defs>
		<clipPath id="SVGID_2_">
			<use xlink:href="#SVGID_1_"  overflow="visible"/>
		</clipPath>
		<path clip-path="url(#SVGID_2_)" fill="#FFFFFF" d="M23.064,10.757v24.311c0,1.023,0.836,1.861,1.862,1.861h17.047
			c1.024,0,1.862-0.838,1.862-1.861V1.194c0-0.686-0.336-1.123-0.834-1.194l-0.07,0.002C33.797,0.294,23.07,4.998,23.07,10.757
			H23.064z"/>
		<path clip-path="url(#SVGID_2_)" fill="#FFFFFF" d="M20.771,10.757v24.311c0,1.023-0.838,1.861-1.863,1.861H1.862
			C0.837,36.929,0,36.091,0,35.067V1.194C0,0.508,0.336,0.071,0.834,0l0.121,0.003c9.107,0.31,19.808,5.006,19.808,10.754H20.771z"/>
		<path clip-path="url(#SVGID_2_)" fill="#FFFFFF" d="M57.614,9.164v5.627H55.45V1.021h4.938c1.337,0,2.38,0.372,3.128,1.14
			c0.767,0.769,1.14,1.732,1.14,2.931c0,1.201-0.373,2.165-1.14,2.932c-0.748,0.767-1.791,1.14-3.128,1.14H57.614z M60.486,7.118
			c1.239,0,1.967-0.747,1.967-2.026c0-1.279-0.728-2.026-1.967-2.026h-2.872v4.052H60.486z"/>
		<path clip-path="url(#SVGID_2_)" fill="#FFFFFF" d="M68.768,1.022h2.045l4.781,13.769h-2.203l-1.141-3.423h-4.918l-1.141,3.423
			h-2.203L68.768,1.022z M69.792,3.756l-1.81,5.565h3.62L69.792,3.756z"/>
		<path clip-path="url(#SVGID_2_)" fill="#FFFFFF" d="M76.736,1.021h2.162v8.91c0,1.89,0.965,2.971,2.795,2.971
			c1.829,0,2.792-1.081,2.792-2.971v-8.91h2.165v8.813c0,1.612-0.473,2.872-1.397,3.776c-0.924,0.885-2.105,1.339-3.56,1.339
			s-2.656-0.454-3.581-1.359c-0.924-0.905-1.376-2.163-1.376-3.756V1.021z"/>
		<polygon clip-path="url(#SVGID_2_)" fill="#FFFFFF" points="89.521,1.021 91.686,1.021 91.686,12.747 97.626,12.747 97.626,14.792 
			89.521,14.792 	"/>
		<polygon clip-path="url(#SVGID_2_)" fill="#FFFFFF" points="104.865,14.791 104.865,1.021 107.423,1.021 110.844,10.187 
			114.267,1.021 116.826,1.021 116.826,14.791 114.662,14.791 114.662,5.507 111.613,13.531 110.078,13.531 107.029,5.507 
			107.029,14.791 	"/>
		<polygon clip-path="url(#SVGID_2_)" fill="#FFFFFF" points="119.837,1.021 127.999,1.021 127.999,3.066 122,3.066 122,6.452 
			126.839,6.452 126.839,8.497 122,8.497 122,12.747 128.196,12.747 128.196,14.792 119.837,14.792 	"/>
		<polygon clip-path="url(#SVGID_2_)" fill="#FFFFFF" points="130.812,1.021 132.977,1.021 132.977,12.747 138.916,12.747 
			138.916,14.792 130.812,14.792 	"/>
		<polygon clip-path="url(#SVGID_2_)" fill="#FFFFFF" points="141.12,1.021 143.284,1.021 143.284,12.747 149.224,12.747 
			149.224,14.792 141.12,14.792 	"/>
		<path clip-path="url(#SVGID_2_)" fill="#FFFFFF" d="M156.581,0.862c1.792,0,3.287,0.612,4.485,1.851
			c1.221,1.218,1.83,2.95,1.83,5.194c0,2.241-0.609,3.972-1.83,5.211c-1.198,1.221-2.693,1.831-4.485,1.831
			c-1.788,0-3.283-0.61-4.503-1.831c-1.199-1.239-1.809-2.97-1.809-5.211c0-2.244,0.609-3.976,1.809-5.194
			C153.298,1.474,154.793,0.862,156.581,0.862 M156.581,2.909c-1.179,0-2.163,0.433-2.949,1.278c-0.768,0.846-1.16,2.086-1.16,3.72
			c0,1.631,0.393,2.87,1.16,3.717c0.786,0.846,1.771,1.278,2.949,1.278c1.181,0,2.166-0.432,2.933-1.278
			c0.786-0.847,1.18-2.086,1.18-3.717c0-1.634-0.394-2.874-1.18-3.72C158.747,3.342,157.762,2.909,156.581,2.909"/>
		<polygon clip-path="url(#SVGID_2_)" fill="#FFFFFF" points="173.204,1.021 175.368,1.021 175.368,14.792 173.048,14.792 
			167.401,4.916 167.401,14.792 165.238,14.792 165.238,1.021 167.561,1.021 173.204,10.935 	"/>
		<path clip-path="url(#SVGID_2_)" fill="#FFFFFF" d="M193.191,5.546c-0.709-1.81-1.712-2.637-3.521-2.637
			c-2.439,0-4.169,1.772-4.169,4.998c0,3.224,1.729,4.995,4.169,4.995c1.81,0,2.812-0.826,3.521-2.635l2.045,0.51
			c-0.707,2.656-2.675,4.172-5.566,4.172c-1.77,0-3.285-0.61-4.524-1.85c-1.239-1.24-1.849-2.97-1.849-5.192
			c0-2.223,0.609-3.936,1.849-5.175c1.239-1.239,2.755-1.87,4.524-1.87c2.892,0,4.859,1.517,5.566,4.171L193.191,5.546z"/>
		<polygon clip-path="url(#SVGID_2_)" fill="#FFFFFF" points="197.577,1.021 205.741,1.021 205.741,3.066 199.741,3.066 
			199.741,6.452 204.581,6.452 204.581,8.497 199.741,8.497 199.741,12.747 205.938,12.747 205.938,14.792 197.577,14.792 	"/>
		<polygon clip-path="url(#SVGID_2_)" fill="#FFFFFF" points="216.522,1.021 218.685,1.021 218.685,14.792 216.363,14.792 
			210.72,4.916 210.72,14.792 208.556,14.792 208.556,1.021 210.877,1.021 216.522,10.935 	"/>
		<polygon clip-path="url(#SVGID_2_)" fill="#FFFFFF" points="220.751,3.066 220.751,1.021 230.626,1.021 230.626,3.066 
			226.771,3.066 226.771,14.792 224.607,14.792 224.607,3.066 	"/>
		<path clip-path="url(#SVGID_2_)" fill="#FFFFFF" d="M238.711,8.458l3.974,6.334h-2.557l-3.875-6.177h-1.594v6.177h-2.164V1.021
			h4.819c2.577,0,4.072,1.435,4.072,3.796C241.387,6.707,240.421,8.004,238.711,8.458 M237.374,6.567c1.101,0,1.81-0.569,1.81-1.75
			c0-1.18-0.709-1.751-1.81-1.751h-2.715v3.501H237.374z"/>
		<polygon clip-path="url(#SVGID_2_)" fill="#FFFFFF" points="244.357,1.021 252.522,1.021 252.522,3.066 246.52,3.066 246.52,6.452 
			251.359,6.452 251.359,8.497 246.52,8.497 246.52,12.747 252.718,12.747 252.718,14.792 244.357,14.792 	"/>
		<path clip-path="url(#SVGID_2_)" fill="#FFFFFF" d="M55.46,26.122l1.588-0.362c0.572-2.906,2.141-5.144,4.281-5.144
			c1.205,0,1.893,0.573,1.893,1.415c0,0.612-0.44,1.013-1.11,1.185h-0.21c0-1.031-0.305-2.046-1.146-2.046
			c-0.917,0-1.645,1.512-1.949,4.686h2.216l-0.17,0.727h-2.162l-1.395,6.116c-1.148,5.124-2.37,6.843-4.473,6.843
			c-0.956,0-1.663-0.439-1.663-1.204c0-0.688,0.554-0.994,1.051-1.109h0.173c0.096,1.071,0.555,1.76,1.127,1.76
			c0.669,0,1.147-0.401,1.97-4.856l1.395-7.549h-1.53L55.46,26.122z"/>
		<path clip-path="url(#SVGID_2_)" fill="#FFFFFF" d="M60.68,32.258c0-3.039,2.256-6.805,5.314-6.805
			c1.892,0,3.021,1.279,3.021,3.519c0,3.039-2.257,6.804-5.315,6.804C61.808,35.775,60.68,34.495,60.68,32.258 M67.332,28.8
			c0-1.607-0.383-2.812-1.529-2.812c-1.95,0-3.441,3.785-3.441,6.441c0,1.607,0.383,2.809,1.529,2.809
			C65.841,35.238,67.332,31.455,67.332,28.8"/>
		<path clip-path="url(#SVGID_2_)" fill="#FFFFFF" d="M73.411,29.027l-0.784,2.352c1.663-3.46,3.04-5.926,4.377-5.926
			c0.631,0,0.975,0.458,0.975,1.032c0,0.803-0.478,1.224-1.204,1.568h-0.153c0-0.422-0.076-0.785-0.535-0.785
			c-1.032,0-3.173,3.288-4.263,8.315h-1.662l2.119-8.487l-1.165-0.593l0.058-0.229l3.002-0.821h0.19L73.411,29.027z"/>
		<path clip-path="url(#SVGID_2_)" fill="#FFFFFF" d="M85.949,35.775c-2.025,0-3.459-0.765-4.108-1.375l0.495-3.193h0.498
			c0.114,2.638,1.223,3.957,3.231,3.957c1.797,0,2.981-1.053,2.981-2.81c0-1.454-0.708-2.084-2.637-3.022
			c-1.72-0.838-2.656-1.854-2.656-3.439c0-2.273,1.759-3.919,4.528-3.919c1.378,0,2.638,0.402,3.576,1.129l-0.535,2.809h-0.478
			c-0.021-2.199-0.747-3.325-2.676-3.325c-1.702,0-2.752,1.165-2.752,2.715c0,1.222,0.63,1.873,2.121,2.561
			c1.873,0.859,3.268,1.931,3.268,3.747C90.805,34.246,88.434,35.775,85.949,35.775"/>
		<path clip-path="url(#SVGID_2_)" fill="#FFFFFF" d="M94.571,33.1c-0.096,0.4-0.153,0.707-0.153,0.956
			c0,0.306,0.172,0.497,0.477,0.497c0.707,0,1.263-0.479,2.353-1.721l0.285,0.229c-1.318,1.835-2.352,2.714-3.421,2.714
			c-0.841,0-1.357-0.555-1.357-1.414c0-0.421,0.057-0.861,0.212-1.454l1.584-6.325h-1.261l0.096-0.364
			c1.375-0.458,2.237-1.415,3.192-2.733h0.402l-0.593,2.371h2.161l-0.192,0.727h-2.141L94.571,33.1z"/>
		<path clip-path="url(#SVGID_2_)" fill="#FFFFFF" d="M106.347,25.739l1.779-0.134l-1.893,7.761
			c-0.096,0.363-0.173,0.689-0.173,0.842c0,0.192,0.096,0.287,0.267,0.287c0.364,0,0.861-0.384,1.72-1.434l0.288,0.21
			c-1.167,1.739-1.893,2.504-2.791,2.504c-0.726,0-1.089-0.515-1.089-1.3c0-0.574,0.42-2.274,0.783-3.631
			c-0.841,1.874-2.962,4.931-4.817,4.931c-0.936,0-1.416-0.631-1.416-1.472c0-0.287,0.06-0.63,0.154-0.975l1.606-6.232l-1.166-0.593
			l0.058-0.229l3-0.821h0.191l-2.006,7.799c-0.095,0.363-0.154,0.633-0.154,0.879c0,0.364,0.19,0.555,0.516,0.555
			c1.205,0,3.632-2.771,4.532-6.441L106.347,25.739z"/>
		<path clip-path="url(#SVGID_2_)" fill="#FFFFFF" d="M118.39,22.204l-1.301-0.611l0.058-0.231l3.097-0.746h0.19l-3.172,12.75
			c-0.096,0.363-0.173,0.689-0.173,0.842c0,0.191,0.097,0.287,0.27,0.287c0.362,0,0.857-0.384,1.719-1.434l0.286,0.21
			c-1.165,1.739-1.892,2.505-2.791,2.505c-0.726,0-1.088-0.517-1.088-1.301c0-0.574,0.477-2.504,0.841-3.518
			c-1.091,2.408-3.117,4.818-4.628,4.818c-1.281,0-1.988-1.07-1.988-2.792c0-4.034,3.136-7.531,5.889-7.531
			c0.841,0,1.279,0.191,1.796,0.707L118.39,22.204z M117.224,26.963c-0.269-0.612-0.86-0.975-1.528-0.975
			c-2.353,0-4.284,3.747-4.304,6.844c0,1.052,0.269,1.739,0.918,1.739C113.821,34.571,116.116,31.646,117.224,26.963"/>
		<path clip-path="url(#SVGID_2_)" fill="#FFFFFF" d="M122.71,27.097l-1.167-0.593l0.059-0.23l3-0.82h0.191l-1.987,7.913
			c-0.096,0.363-0.173,0.689-0.173,0.842c0,0.191,0.095,0.287,0.268,0.287c0.364,0,0.86-0.384,1.72-1.434l0.287,0.21
			c-1.166,1.739-1.893,2.503-2.792,2.503c-0.725,0-1.128-0.515-1.128-1.299c0-0.438,0.077-0.918,0.268-1.644L122.71,27.097z
			 M123.456,22.795c0-0.669,0.553-1.224,1.202-1.224c0.632,0,1.11,0.497,1.11,1.11c0,0.668-0.554,1.223-1.204,1.223
			C123.933,23.904,123.456,23.407,123.456,22.795"/>
		<path clip-path="url(#SVGID_2_)" fill="#FFFFFF" d="M128.004,31.226c-0.019,0.269-0.039,0.555-0.039,0.803
			c0,1.739,0.746,2.753,1.989,2.753c1.109,0,2.027-0.688,2.964-1.911l0.343,0.249c-1.204,1.758-2.409,2.656-3.957,2.656
			c-1.911,0-3.001-1.395-3.001-3.44c0-3.325,2.523-6.882,5.449-6.882c1.528,0,2.235,0.841,2.235,1.854
			C133.987,29.773,130.966,30.595,128.004,31.226 M128.062,30.824c2.924-0.669,4.377-1.683,4.377-3.612
			c0-0.612-0.285-1.166-1.032-1.166C129.763,26.046,128.424,28.435,128.062,30.824"/>
		<path clip-path="url(#SVGID_2_)" fill="#FFFFFF" d="M139.396,33.596c0-1.433-3.46-3.173-3.46-5.313
			c0-1.567,1.339-2.829,3.173-2.829c1.453,0,2.333,0.65,2.333,1.624c0,0.517-0.459,0.88-0.841,1.052h-0.077
			c-0.42-1.089-1.128-1.95-2.198-1.95c-0.859,0-1.319,0.536-1.319,1.339c0,1.282,3.518,3.212,3.518,5.237
			c0,1.873-1.565,3.021-3.287,3.021c-1.721,0-2.83-0.917-2.83-2.026c0-0.555,0.325-1.051,0.821-1.28h0.097
			c0.384,1.511,1.262,2.6,2.543,2.6C138.881,35.068,139.396,34.532,139.396,33.596"/>
		<path clip-path="url(#SVGID_2_)" fill="#FFFFFF" d="M148.458,27.097l-1.166-0.593l0.057-0.23l3.001-0.82h0.192l-1.989,7.913
			c-0.095,0.363-0.171,0.689-0.171,0.842c0,0.191,0.095,0.287,0.267,0.287c0.363,0,0.86-0.384,1.72-1.434l0.288,0.21
			c-1.166,1.739-1.892,2.503-2.791,2.503c-0.727,0-1.128-0.515-1.128-1.299c0-0.438,0.076-0.918,0.268-1.644L148.458,27.097z
			 M149.203,22.795c0-0.669,0.554-1.224,1.205-1.224c0.63,0,1.107,0.497,1.107,1.11c0,0.668-0.553,1.223-1.204,1.223
			C149.682,23.904,149.203,23.407,149.203,22.795"/>
		<path clip-path="url(#SVGID_2_)" fill="#FFFFFF" d="M154.976,30.193c1.032-1.911,3.231-4.74,5.085-4.74
			c0.937,0,1.223,0.516,1.223,1.357c0,0.248-0.056,0.593-0.114,0.841l-1.51,5.715c-0.096,0.363-0.172,0.689-0.172,0.842
			c0,0.192,0.097,0.287,0.268,0.287c0.362,0,0.86-0.384,1.721-1.434l0.287,0.21c-1.167,1.739-1.894,2.504-2.792,2.504
			c-0.727,0-1.128-0.516-1.128-1.3c0-0.438,0.077-0.918,0.269-1.644l1.413-5.257c0.06-0.247,0.098-0.479,0.098-0.631
			c0-0.268-0.098-0.402-0.345-0.402c-1.186,0-4.034,2.773-4.895,6.271l-0.688,2.771h-1.663l2.123-8.487l-1.166-0.592l0.058-0.23
			l3.001-0.821h0.19L154.976,30.193z"/>
		<path clip-path="url(#SVGID_2_)" fill="#FFFFFF" d="M166.33,35.068c1.452-0.172,1.74-0.268,1.969-1.358l2.065-9.672
			c0.248-1.165-0.134-1.205-1.396-1.356l0.097-0.516h5.371c2.715,0,3.822,1.127,3.822,2.713c0,2.562-2.255,3.632-4.28,3.747
			c2.331,0.095,3.631,1.301,3.631,2.868c0,2.676-2.522,4.09-5.581,4.09h-5.812L166.33,35.068z M171.109,28.972l-0.995,4.702
			c-0.229,1.032,0.287,1.279,1.606,1.279h0.229c2.123,0,3.786-1.069,3.786-3.555c0-1.396-0.955-2.427-2.791-2.427H171.109z
			 M172.428,22.795l-1.184,5.545h1.413c2.143,0,3.767-0.918,3.767-3.383c0-1.416-0.879-2.162-2.58-2.162H172.428z"/>
		<path clip-path="url(#SVGID_2_)" fill="#FFFFFF" d="M182.482,29.027l-0.783,2.352c1.663-3.46,3.04-5.926,4.378-5.926
			c0.63,0,0.975,0.458,0.975,1.032c0,0.803-0.478,1.224-1.204,1.568h-0.153c0-0.422-0.076-0.785-0.535-0.785
			c-1.032,0-3.173,3.288-4.263,8.315h-1.663l2.122-8.487l-1.166-0.593l0.057-0.229l3.002-0.821h0.191L182.482,29.027z"/>
		<path clip-path="url(#SVGID_2_)" fill="#FFFFFF" d="M188.925,27.097l-1.166-0.593l0.057-0.23l3-0.82h0.192l-1.986,7.913
			c-0.097,0.363-0.174,0.689-0.174,0.842c0,0.191,0.096,0.287,0.269,0.287c0.363,0,0.861-0.384,1.721-1.434l0.286,0.21
			c-1.166,1.739-1.892,2.503-2.792,2.503c-0.725,0-1.127-0.515-1.127-1.299c0-0.438,0.078-0.918,0.268-1.644L188.925,27.097z
			 M189.67,22.795c0-0.669,0.555-1.224,1.205-1.224c0.63,0,1.107,0.497,1.107,1.11c0,0.668-0.553,1.223-1.204,1.223
			C190.148,23.904,189.67,23.407,189.67,22.795"/>
		<path clip-path="url(#SVGID_2_)" fill="#FFFFFF" d="M194.583,33.1c-0.097,0.4-0.152,0.707-0.152,0.956
			c0,0.306,0.172,0.497,0.478,0.497c0.707,0,1.262-0.479,2.351-1.721l0.288,0.229c-1.319,1.835-2.353,2.714-3.423,2.714
			c-0.84,0-1.356-0.555-1.356-1.414c0-0.421,0.057-0.861,0.21-1.454l1.587-6.325h-1.264l0.098-0.364
			c1.375-0.458,2.236-1.415,3.192-2.733h0.401l-0.593,2.371h2.16l-0.191,0.727h-2.141L194.583,33.1z"/>
		<path clip-path="url(#SVGID_2_)" fill="#FFFFFF" d="M200.719,27.097l-1.166-0.593l0.058-0.23l3-0.82h0.191l-1.987,7.913
			c-0.096,0.363-0.171,0.689-0.171,0.842c0,0.191,0.093,0.287,0.267,0.287c0.363,0,0.86-0.384,1.721-1.434l0.286,0.21
			c-1.166,1.739-1.893,2.503-2.791,2.503c-0.726,0-1.127-0.515-1.127-1.299c0-0.438,0.076-0.918,0.267-1.644L200.719,27.097z
			 M201.465,22.795c0-0.669,0.554-1.224,1.204-1.224c0.63,0,1.108,0.497,1.108,1.11c0,0.668-0.554,1.223-1.204,1.223
			C201.942,23.904,201.465,23.407,201.465,22.795"/>
		<path clip-path="url(#SVGID_2_)" fill="#FFFFFF" d="M208.785,33.596c0-1.433-3.459-3.173-3.459-5.313
			c0-1.567,1.338-2.829,3.172-2.829c1.454,0,2.333,0.65,2.333,1.624c0,0.517-0.459,0.88-0.842,1.052h-0.076
			c-0.419-1.089-1.128-1.95-2.197-1.95c-0.861,0-1.319,0.536-1.319,1.339c0,1.282,3.517,3.212,3.517,5.237
			c0,1.873-1.568,3.021-3.288,3.021s-2.828-0.917-2.828-2.026c0-0.555,0.324-1.051,0.821-1.28h0.097c0.381,1.511,1.262,2.6,2.541,2.6
			C208.269,35.068,208.785,34.532,208.785,33.596"/>
		<path clip-path="url(#SVGID_2_)" fill="#FFFFFF" d="M214.482,30.193c1.031-1.911,3.229-4.74,5.084-4.74
			c0.936,0,1.225,0.516,1.225,1.357c0,0.248-0.059,0.593-0.115,0.841l-1.511,5.715c-0.095,0.363-0.172,0.689-0.172,0.842
			c0,0.192,0.097,0.287,0.269,0.287c0.361,0,0.859-0.384,1.72-1.434l0.286,0.21c-1.166,1.739-1.893,2.504-2.79,2.504
			c-0.727,0-1.129-0.516-1.129-1.3c0-0.438,0.078-0.918,0.269-1.644l1.413-5.257c0.06-0.247,0.098-0.479,0.098-0.631
			c0-0.268-0.098-0.402-0.345-0.402c-1.186,0-4.033,2.773-4.895,6.271l-0.687,2.771h-1.664l3.346-13.38l-1.301-0.611l0.058-0.231
			l3.097-0.745h0.192L214.482,30.193z"/>
		<path clip-path="url(#SVGID_2_)" fill="#FFFFFF" d="M235.069,30.882h-5.429l-1.568,2.581c-0.248,0.421-0.382,0.727-0.382,0.953
			c0,0.461,0.517,0.614,1.588,0.652l-0.097,0.516h-3.88l0.096-0.516c0.555-0.058,0.975-0.191,1.281-0.707l6.844-11.146l-0.27-1.223
			h1.835l2.447,12.368c0.096,0.516,0.46,0.649,0.976,0.707l-0.096,0.516h-4.799l0.096-0.516c1.052-0.038,1.931-0.096,1.931-1.108
			c0-0.135-0.019-0.306-0.057-0.479L235.069,30.882z M230.004,30.271h4.951l-1.185-6.175L230.004,30.271z"/>
		<path clip-path="url(#SVGID_2_)" fill="#FFFFFF" d="M243.31,29.027l-0.784,2.352c1.663-3.46,3.04-5.926,4.378-5.926
			c0.63,0,0.976,0.458,0.976,1.032c0,0.803-0.479,1.224-1.206,1.568h-0.153c0-0.422-0.076-0.785-0.534-0.785
			c-1.032,0-3.174,3.288-4.263,8.315h-1.664l2.122-8.487l-1.165-0.593l0.057-0.229l3.001-0.821h0.191L243.31,29.027z"/>
		<path clip-path="url(#SVGID_2_)" fill="#FFFFFF" d="M250.074,33.1c-0.094,0.4-0.151,0.707-0.151,0.956
			c0,0.306,0.172,0.497,0.478,0.497c0.707,0,1.262-0.479,2.352-1.721l0.287,0.229c-1.32,1.835-2.353,2.714-3.423,2.714
			c-0.841,0-1.356-0.555-1.356-1.414c0-0.421,0.057-0.861,0.21-1.454l1.586-6.325h-1.261l0.096-0.364
			c1.375-0.458,2.235-1.415,3.191-2.733h0.402l-0.593,2.371h2.16l-0.191,0.727h-2.142L250.074,33.1z"/>
	</g>
</svg>